<svg xmlns="http://www.w3.org/2000/svg" xmlns:xlink="http://www.w3.org/1999/xlink" viewBox="0 0 81.6 104.5" class="bb-icon--size-fluid bb-icon--rotate-up bb-icon bb-logo__svg"><defs><path id="SVGID_1_mark_" d="M79.76 73.9c0 4.69-.85 8.85-2.54 12.49-1.7 3.64-3.99 6.73-6.88 9.27-2.89 2.54-6.2 4.46-9.94 5.76-3.74 1.29-7.65 1.94-11.74 1.94H8.13c-1.39 0-2.32-.3-2.77-.9-.45-.6-.67-1.4-.67-2.39V7.36c0-1 .22-1.79.67-2.39.45-.6 1.32-.9 2.62-.9l37.98-.15c10.27 0 18.02 2.47 23.25 7.4 5.24 4.93 7.85 11.69 7.85 20.26 0 1.19-.15 2.64-.45 4.33-.3 1.7-.82 3.44-1.57 5.24-.75 1.79-1.85 3.54-3.29 5.23-1.45 1.7-3.26 3.09-5.46 4.19l.15.6c2.89 1.1 5.21 2.59 6.95 4.48 1.74 1.9 3.09 3.94 4.04 6.13.95 2.19 1.57 4.36 1.87 6.51.31 2.15.46 4.02.46 5.61z"></path><clipPath id="SVGID_2_mark_"><use xlink:href="#SVGID_1_mark_" overflow="visible"></use></clipPath><radialGradient id="SVGID_3_mark_" cx="89.3921" cy="61.663" r="73.2962" gradientUnits="userSpaceOnUse"><stop offset=".3805" stop-color="#3cc88c"></stop><stop offset="1" stop-color="#005876"></stop></radialGradient><radialGradient id="SVGID_4_mark_" cx="-8.7241" cy="10.8662" r="73.2962" gradientUnits="userSpaceOnUse"><stop offset=".4734" stop-color="#00c8b4"></stop><stop offset=".5679" stop-color="#00c4b2"></stop><stop offset=".669" stop-color="#00b7aa"></stop><stop offset=".7732" stop-color="#00a19f"></stop><stop offset=".8795" stop-color="#00838e"></stop><stop offset=".9865" stop-color="#005d79"></stop><stop offset="1" stop-color="#005876"></stop></radialGradient></defs><path d="M79.76 73.9c0 4.69-.85 8.85-2.54 12.49-1.7 3.64-3.99 6.73-6.88 9.27-2.89 2.54-6.2 4.46-9.94 5.76-3.74 1.29-7.65 1.94-11.74 1.94H8.13c-1.39 0-2.32-.3-2.77-.9-.45-.6-.67-1.4-.67-2.39V7.36c0-1 .22-1.79.67-2.39.45-.6 1.32-.9 2.62-.9l37.98-.15c10.27 0 18.02 2.47 23.25 7.4 5.24 4.93 7.85 11.69 7.85 20.26 0 1.19-.15 2.64-.45 4.33-.3 1.7-.82 3.44-1.57 5.24-.75 1.79-1.85 3.54-3.29 5.23-1.45 1.7-3.26 3.09-5.46 4.19l.15.6c2.89 1.1 5.21 2.59 6.95 4.48 1.74 1.9 3.09 3.94 4.04 6.13.95 2.19 1.57 4.36 1.87 6.51.31 2.15.46 4.02.46 5.61z" fill="#66ccc6"></path><path d="M162.69 61.66c0 40.48-32.82 73.3-73.29 73.3-40.48 0-73.3-32.82-73.3-73.3s32.82-73.29 73.3-73.29c40.47 0 73.29 32.81 73.29 73.29z" clip-path="url(#SVGID_2_mark_)" fill="url(#SVGID_3_mark_)"></path><path d="M64.57 10.86c0 40.48-32.82 73.3-73.3 73.3s-73.3-32.82-73.3-73.3 32.82-73.29 73.3-73.29c40.49 0 73.3 32.81 73.3 73.29z" opacity=".6" clip-path="url(#SVGID_2_mark_)" fill="url(#SVGID_4_mark_)"></path></svg>
