<svg width="37" height="60" viewBox="0 0 37 60" fill="none" xmlns="http://www.w3.org/2000/svg">
<path fill-rule="evenodd" clip-rule="evenodd" d="M0.0191542 46.4992V49.1494C0.296251 49.1443 0.574626 49.1417 0.850446 49.1417C5.8714 49.1417 10.6331 50.0421 14.9071 51.6541L14.916 30.3303C14.916 26.3614 16.4151 24.1972 18.5438 22.7586C20.6074 24.2214 22.215 26.4023 22.215 30.3303L22.1703 55.3896C23.9721 56.6063 25.6168 57.9748 27.0751 59.4656L27.1096 30.2181C27.1096 23.5544 23.5571 19.8572 19.6688 17.5615C19.2959 17.3753 18.9116 17.1305 18.5655 17.0144C18.231 17.1471 17.8581 17.3282 17.4584 17.5666C13.6876 19.7067 10.0202 23.571 10.0202 30.2181L10.0023 46.4992H4.92263L4.9022 30.5637C4.9022 17.3613 10.697 10.3928 18.4519 5.98776C25.7292 10.3928 32.0054 17.3639 32.0054 30.5637L32.0258 46.4992H36.928L36.9089 30.2729C36.9089 14.59 28.7351 6.01837 19.3342 0.473154C19.3342 0.473154 18.5962 0.0357097 18.4519 0C18.3127 0.033159 17.5772 0.473154 17.5772 0.473154C8.54277 5.58985 0 14.59 0 30.2729L0.0191542 46.4992Z" fill="#B71234"/>
</svg>
