<svg width="239" height="216" viewBox="0 0 239 216" fill="none" xmlns="http://www.w3.org/2000/svg">
<path d="M144.84 215.3C143.11 215.3 142.29 214.54 142.29 212.79V194.6C142.29 192.81 143.11 192.06 144.84 192.06H209.82C211.52 192.06 212.31 191.28 212.31 189.53V122.46C212.31 120.68 211.51 119.92 209.82 119.92H194.29C192.55 119.92 191.8 119.12 191.8 117.37V98.12C191.8 96.35 192.55 95.59 194.29 95.59H209.82C211.52 95.59 212.31 94.79 212.31 93.06V26.08C212.31 24.3 211.51 23.58 209.82 23.58H144.84C143.11 23.58 142.29 22.78 142.29 21V2.83C142.29 1.05 143.11 0.300003 144.84 0.300003H235.97C237.74 0.300003 238.5 1.05 238.5 2.83V212.79C238.5 214.54 237.73 215.3 235.97 215.3H144.84Z" fill="#348F41"/>
<path d="M2.75 215.3C0.96 215.3 0.220001 214.54 0.220001 212.79V2.84C0.220001 1.06 0.96 0.309998 2.75 0.309998H93.83C95.62 0.309998 96.4 1.06 96.4 2.84V21.01C96.4 22.78 95.63 23.59 93.83 23.59H28.9C27.17 23.59 26.42 24.31 26.42 26.09V93.07C26.42 94.81 27.16 95.6 28.9 95.6H44.44C46.17 95.6 46.95 96.36 46.95 98.13V117.38C46.95 119.13 46.17 119.93 44.44 119.93H28.9C27.17 119.93 26.42 120.69 26.42 122.47V189.54C26.42 191.29 27.16 192.07 28.9 192.07H93.83C95.62 192.07 96.4 192.82 96.4 194.61V212.8C96.4 214.55 95.63 215.31 93.83 215.31H2.75V215.3Z" fill="#348F41"/>
<path d="M109.5 178.58C108.06 178.58 107.43 177.97 107.43 176.47V71C107.43 69.56 106.83 68.92 105.35 68.92H73.24C71.8 68.92 71.18 68.27 71.18 66.84V49.09C71.18 47.62 71.81 47 73.24 47H165.42C166.86 47 167.5 47.62 167.5 49.09V66.84C167.5 68.27 166.85 68.92 165.42 68.92H133.33C131.86 68.92 131.22 69.56 131.22 71V176.46C131.22 177.97 130.61 178.57 129.19 178.57H109.5V178.58Z" fill="#348F41"/>
</svg>
